<?xml version="1.0" standalone="no"?>
<!DOCTYPE svg PUBLIC "-//W3C//DTD SVG 20010904//EN"
 "http://www.w3.org/TR/2001/REC-SVG-20010904/DTD/svg10.dtd">
<svg version="1.0" xmlns="http://www.w3.org/2000/svg"
 width="512.000000pt" height="512.000000pt" viewBox="0 0 512.000000 512.000000"
 preserveAspectRatio="xMidYMid meet">
<metadata>
Created by potrace 1.14, written by Peter Selinger 2001-2017
</metadata>
<g transform="translate(0.000000,512.000000) scale(0.100000,-0.100000)"
fill="#000000" stroke="none">
<path d="M2369 5116 c-2 -2 -34 -6 -70 -10 -330 -31 -680 -141 -984 -310 -523
-290 -941 -774 -1150 -1332 -67 -179 -120 -385 -140 -544 -4 -30 -10 -66 -13
-80 -2 -14 -6 -475 -8 -1025 -3 -954 -3 -1004 15 -1080 27 -113 35 -134 77
-222 118 -241 342 -420 614 -489 71 -18 124 -19 1055 -19 1039 0 1066 1 1294
45 564 107 1091 422 1476 881 70 83 203 273 244 349 149 276 248 538 286 759
3 19 8 37 10 40 3 6 8 33 21 123 16 116 19 284 19 1163 l0 980 -24 85 c-65
230 -192 408 -383 535 -75 51 -192 104 -273 124 -27 7 -59 16 -70 19 -20 7
-1989 14 -1996 8z"/>
</g>
</svg>
