<svg width="512" height="512" viewBox="0 0 512 512" fill="none" xmlns="http://www.w3.org/2000/svg">
<g clip-path="url(#clip0_1105_399)">
<path d="M0 256C0 114.615 114.615 0 256 0V0V256H0V256Z" fill="#77CEFF"/>
<path d="M256 0H420C470.81 0 512 41.1898 512 92V256H256V0Z" fill="#FFF500"/>
<path d="M0 256H256V512H92C41.1898 512 0 470.81 0 420V256Z" fill="#FF6464"/>
<path d="M256 256H512V256C512 397.385 397.385 512 256 512V512V256Z" fill="#9EFC40"/>
<path d="M132.816 181.6V233.6H380.016V181.6H132.816ZM257.216 249.2C198.816 249.2 155.616 280.4 155.616 325.2C155.616 369.6 198.816 400.8 257.216 400.8C315.616 400.8 358.816 369.6 358.816 325.2C358.816 280.4 315.616 249.2 257.216 249.2ZM257.216 302.8C277.616 302.8 292.816 308.8 292.816 325.2C292.816 341.2 277.616 347.2 257.216 347.2C236.816 347.2 221.616 341.2 221.616 325.2C221.616 308.8 236.816 302.8 257.216 302.8ZM225.216 137.6V228H289.616V137.6H225.216Z" fill="#2F2F2F"/>
</g>
<defs>
<clipPath id="clip0_1105_399">
<rect width="512" height="512" fill="white"/>
</clipPath>
</defs>
</svg>
